<?xml version="1.0" encoding="iso-8859-1"?>
<!-- Generator: Adobe Illustrator 19.0.0, SVG Export Plug-In . SVG Version: 6.00 Build 0)  -->
<svg version="1.1" id="Capa_1" xmlns="http://www.w3.org/2000/svg" xmlns:xlink="http://www.w3.org/1999/xlink" x="0px" y="0px"
	 viewBox="0 0 480 480" style="enable-background:new 0 0 480 480;" xml:space="preserve">
<path style="fill:#CFDFE8;" d="M72,8h336l0,0v432c0,17.673-14.327,32-32,32H104c-17.673,0-32-14.327-32-32V8L72,8z"/>
<path style="fill:#E9686A;" d="M72,8h336v80H72V8z"/>
<g>
	<path style="fill:#FFFFFF;" d="M120,136h64v48h-64V136z"/>
	<path style="fill:#FFFFFF;" d="M120,296h64v48h-64V296z"/>
	<path style="fill:#FFFFFF;" d="M120,376h64v48h-64V376z"/>
</g>
<path style="fill:#E9686A;" d="M128,272c-0.722-0.001-1.44-0.098-2.136-0.288c-2.566-0.714-4.608-2.657-5.448-5.184l-8-24
	c-1.396-4.197,0.875-8.732,5.072-10.128c4.197-1.396,8.732,0.875,10.128,5.072l4.248,12.704l46.968-40.248
	c3.245-2.998,8.307-2.798,11.305,0.447c2.998,3.245,2.798,8.307-0.447,11.305c-0.148,0.136-0.3,0.267-0.458,0.392l-56,48
	C131.778,271.326,129.92,272.011,128,272L128,272z"/>
<g>
	<g>
		<path id="SVGCleanerId_0" style="fill:#5A6470;" d="M224,128h144v16H224V128z"/>
	</g>
	<g>
		<path id="SVGCleanerId_1" style="fill:#5A6470;" d="M224,160h144v16H224V160z"/>
	</g>
	<g>
		<path id="SVGCleanerId_2" style="fill:#5A6470;" d="M224,208h144v16H224V208z"/>
	</g>
	<g>
		<path id="SVGCleanerId_3" style="fill:#5A6470;" d="M224,240h144v16H224V240z"/>
	</g>
	<g>
		<path id="SVGCleanerId_4" style="fill:#5A6470;" d="M224,288h144v16H224V288z"/>
	</g>
	<g>
		<path id="SVGCleanerId_5" style="fill:#5A6470;" d="M224,320h144v16H224V320z"/>
	</g>
	<g>
		<path id="SVGCleanerId_6" style="fill:#5A6470;" d="M224,368h144v16H224V368z"/>
	</g>
	<g>
		<path id="SVGCleanerId_7" style="fill:#5A6470;" d="M224,400h144v16H224V400z"/>
	</g>
</g>
<g>
	<path style="fill:#FFFFFF;" d="M160,64h-40c-4.418,0-8-3.582-8-8s3.582-8,8-8h40c4.418,0,8,3.582,8,8S164.418,64,160,64z"/>
	<path style="fill:#FFFFFF;" d="M360,64h-40c-4.418,0-8-3.582-8-8s3.582-8,8-8h40c4.418,0,8,3.582,8,8S364.418,64,360,64z"/>
</g>
<path d="M64,440c0.026,22.08,17.92,39.974,40,40h272c22.08-0.026,39.974-17.92,40-40V0H64V440z M400,440c0,13.255-10.745,24-24,24
	H104c-13.255,0-24-10.745-24-24V96h320V440z M80,16h320v64H80V16z"/>
<path d="M192,128h-80v64h80V128z M176,176h-48v-32h48V176z"/>
<path d="M192,288h-80v64h80V288z M176,336h-48v-32h48V336z"/>
<path d="M192,368h-80v64h80V368z M176,416h-48v-32h48V416z"/>
<path d="M178.8,209.928l-46.968,40.248l-4.248-12.704c-1.396-4.197-5.931-6.468-10.128-5.072s-6.468,5.931-5.072,10.128l8,24
	c0.84,2.527,2.882,4.47,5.448,5.184c0.706,0.193,1.436,0.29,2.168,0.288c1.909,0.003,3.755-0.682,5.2-1.928l56-48
	c3.462-2.745,4.042-7.777,1.297-11.239c-2.745-3.462-7.777-4.042-11.239-1.297C179.1,209.661,178.948,209.792,178.8,209.928z"/>
<path id="SVGCleanerId_0_1_" d="M224,128h144v16H224V128z"/>
<path id="SVGCleanerId_1_1_" d="M224,160h144v16H224V160z"/>
<path id="SVGCleanerId_2_1_" d="M224,208h144v16H224V208z"/>
<path id="SVGCleanerId_3_1_" d="M224,240h144v16H224V240z"/>
<path id="SVGCleanerId_4_1_" d="M224,288h144v16H224V288z"/>
<path id="SVGCleanerId_5_1_" d="M224,320h144v16H224V320z"/>
<path id="SVGCleanerId_6_1_" d="M224,368h144v16H224V368z"/>
<path id="SVGCleanerId_7_1_" d="M224,400h144v16H224V400z"/>
<path d="M160,48h-40c-4.418,0-8,3.582-8,8s3.582,8,8,8h40c4.418,0,8-3.582,8-8S164.418,48,160,48z"/>
<path d="M360,48h-40c-4.418,0-8,3.582-8,8s3.582,8,8,8h40c4.418,0,8-3.582,8-8S364.418,48,360,48z"/>
<g>
</g>
<g>
</g>
<g>
</g>
<g>
</g>
<g>
</g>
<g>
</g>
<g>
</g>
<g>
</g>
<g>
</g>
<g>
</g>
<g>
</g>
<g>
</g>
<g>
</g>
<g>
</g>
<g>
</g>
</svg>
